<?xml version="1.0" encoding="UTF-8" standalone="no"?>
<!-- Created with Inkscape (http://www.inkscape.org/) -->

<svg
   width="160mm"
   height="160mm"
   viewBox="0 0 160 160"
   version="1.1"
   id="svg5"
   xmlns="http://www.w3.org/2000/svg"
   xmlns:svg="http://www.w3.org/2000/svg">
  <defs
     id="defs2" />
  <g
     id="layer4">
    <path
       style="fill:#999999;stroke:none;stroke-width:1.88976;stroke-linejoin:round;stroke-miterlimit:4;stroke-dasharray:none;paint-order:stroke fill markers"
       id="path2750"
       d="M 130.2087,93.884583 A 50.295559,65.222244 0 0 1 79.976782,159.10677 50.295559,65.222244 0 0 1 29.617741,94.049642 50.295559,65.222244 0 0 1 79.722213,28.662808 50.295559,65.222244 0 0 1 130.20805,93.554464" />
  </g>
  <g
     id="layer5"
     style="display:inline">
    <path
       style="fill:#b3b3b3;stroke:none;stroke-width:1.88976;stroke-linejoin:round;stroke-miterlimit:4;stroke-dasharray:none;paint-order:stroke fill markers"
       id="path3089"
       d="M 13.03506,92.703941 A 14.970098,23.759853 0 0 1 -1.9160952,116.46378 14.970098,23.759853 0 0 1 -16.905087,92.764071 14.970098,23.759853 0 0 1 -1.9918656,68.944259 14.970098,23.759853 0 0 1 13.034868,92.583682"
       transform="matrix(0.60056321,-0.79957728,0.49297099,0.87004575,0,0)" />
    <path
       style="fill:#b3b3b3;stroke:none;stroke-width:1.88976;stroke-linejoin:round;stroke-miterlimit:4;stroke-dasharray:none;paint-order:stroke fill markers"
       id="path3089-5"
       transform="matrix(-0.58109905,-0.81383284,-0.47421937,0.88040672,0,0)"
       d="m -139.58696,-49.226562 a 15.471527,24.699366 0 0 1 -15.45195,24.699345 15.471527,24.699366 0 0 1 -15.49105,-24.636839 15.471527,24.699366 0 0 1 15.41274,-24.761694 15.471527,24.699366 0 0 1 15.53006,24.574174" />
  </g>
  <g
     id="layer1"
     style="display:inline">
    <path
       id="path1191"
       style="fill:#b3b3b3;stroke-width:7.16678;stroke-linejoin:round;paint-order:stroke fill markers"
       d="M 79.237957,2.3037552 A 33.901261,31.590109 0 0 0 45.465264,33.973658 33.901261,31.590109 0 0 0 45.722476,37.594107 39.116608,23.8125 0 0 0 40.250228,49.789745 39.116608,23.8125 0 0 0 79.416217,73.541794 39.116608,23.8125 0 0 0 118.4834,49.729285 l -5.1e-4,-0.120406 a 39.116608,23.8125 0 0 0 -5.47275,-12.007535 33.901261,31.590109 0 0 0 0.25772,-3.707784 l -5.1e-4,-0.159681 A 33.901261,31.590109 0 0 0 79.237957,2.3037552 Z" />
  </g>
  <g
     id="layer6">
    <path
       id="path5276"
       style="fill:#f9f9f9;stroke:none;stroke-width:3.77953;stroke-linejoin:round;stroke-miterlimit:4;stroke-dasharray:none;stroke-opacity:1;paint-order:stroke fill markers"
       d="M 244.9375 170.10352 A 68.215695 26.003013 82.228832 0 0 243.29492 170.20508 A 68.215695 26.003013 82.228832 0 0 226.875 241.46484 A 68.215695 26.003013 82.228832 0 0 238.41602 283.04297 A 68.215695 26.003013 82.228832 0 0 260.91406 319.74414 A 68.215695 26.003013 88.24882 0 1 252.0332 272.45117 A 68.215695 26.003013 88.24882 0 1 271.02734 204.71094 A 68.215695 26.003013 82.228832 0 0 261.77344 191.46484 A 68.215695 26.003013 88.24882 0 1 265.0918 188.99805 A 68.215695 26.003013 82.228832 0 0 244.9375 170.10352 z "
       transform="scale(0.26458333)" />
    <path
       id="path5276-7"
       style="fill:#f9f9f9;stroke:none;stroke-width:1;stroke-linejoin:round;stroke-miterlimit:4;stroke-dasharray:none;stroke-opacity:1;paint-order:stroke fill markers"
       d="m 94.730628,44.746193 a 6.8799638,18.048736 7.771168 0 1 0.4346,0.02687 6.8799638,18.048736 7.771168 0 1 4.34444,18.854145 6.8799638,18.048736 7.771168 0 1 -3.05356,11.00088 6.8799638,18.048736 7.771168 0 1 -5.95261,9.710518 6.8799638,18.048736 1.75118 0 0 2.34973,-12.512931 6.8799638,18.048736 1.75118 0 0 -5.02554,-17.922935 6.8799638,18.048736 7.771168 0 1 2.44843,-3.504697 6.8799638,18.048736 1.75118 0 0 -0.87798,-0.652672 6.8799638,18.048736 7.771168 0 1 5.33249,-4.999178 z" />
  </g>
  <g
     id="layer2"
     style="display:inline">
    <path
       id="path1388"
       style="fill:#999999;stroke-width:7.56877;stroke-linejoin:round;paint-order:stroke fill markers"
       d="m 79.937217,40.365812 a 15.754442,7.3911282 0 0 0 -13.175911,3.386694 10.631519,8.7398863 0 0 0 -7.906251,8.464135 10.631519,8.7398863 0 0 0 10.644636,8.717956 10.631519,8.7398863 0 0 0 9.991726,-5.794466 15.754442,7.3911282 0 0 0 0.39592,0.0068 10.850445,8.8604365 0 0 0 10.23853,5.908688 10.850445,8.8604365 0 0 0 10.836493,-8.860434 v -0.045 a 10.850445,8.8604365 0 0 0 -7.819233,-8.462326 15.754442,7.3911282 0 0 0 -13.20591,-3.322085 z" />
    <path
       style="fill:#ffffff;stroke:none;stroke-width:7.2189;stroke-linejoin:round;paint-order:stroke fill markers"
       id="path1835"
       d="m 68.031021,34.975594 a 3.96875,3.96875 0 0 1 -3.963728,3.968746 3.96875,3.96875 0 0 1 -3.973759,-3.958703 3.96875,3.96875 0 0 1 3.953671,-3.978765 3.96875,3.96875 0 0 1 3.983765,3.948634" />
    <path
       style="fill:#ffffff;stroke:none;stroke-width:7.2189;stroke-linejoin:round;paint-order:stroke fill markers"
       id="path1835-9"
       d="m 99.781013,34.975594 a 3.96875,3.96875 0 0 1 -3.963728,3.968746 3.96875,3.96875 0 0 1 -3.973759,-3.958703 3.96875,3.96875 0 0 1 3.953672,-3.978765 3.96875,3.96875 0 0 1 3.983765,3.948634" />
    <path
       style="fill:#000000;stroke:none;stroke-width:7.2189;stroke-linejoin:round;paint-order:stroke fill markers"
       id="path2257"
       d="m 97.70127,34.754501 a 2.9312198,2.9312198 0 0 1 -2.927511,2.931218 2.9312198,2.9312198 0 0 1 -2.934919,-2.9238 2.9312198,2.9312198 0 0 1 2.920083,-2.938616 2.9312198,2.9312198 0 0 1 2.942309,2.916362" />
    <path
       style="display:inline;fill:#000000;stroke:none;stroke-width:7.2189;stroke-linejoin:round;paint-order:stroke fill markers"
       id="path2257-2"
       d="m 68.031005,34.970341 a 2.9312198,2.9312198 0 0 1 -2.927511,2.931217 2.9312198,2.9312198 0 0 1 -2.93492,-2.923799 2.9312198,2.9312198 0 0 1 2.920084,-2.938617 2.9312198,2.9312198 0 0 1 2.942309,2.916363" />
    <path
       style="fill:#000000;stroke:none;stroke-width:7.2189;stroke-linejoin:round;paint-order:stroke fill markers"
       id="path2361"
       d="m 85.16962,41.958698 a 5.2434115,3.5935318 0 0 1 -5.236777,3.593529 5.2434115,3.5935318 0 0 1 -5.250029,-3.584434 5.2434115,3.5935318 0 0 1 5.22349,-3.602601 5.2434115,3.5935318 0 0 1 5.263249,3.575318" />
  </g>
  <g
     id="layer3"
     style="display:inline">
    <path
       style="fill:none;stroke:#000000;stroke-width:0.5;stroke-linecap:butt;stroke-linejoin:miter;stroke-miterlimit:4;stroke-dasharray:none;stroke-opacity:1"
       d="m 65.385134,52.153428 -5.291667,1.322917 -3.96875,1.322919 -5.291666,2.64583 -2.645834,2.64583"
       id="path2495" />
    <path
       style="fill:none;stroke:#000000;stroke-width:0.5;stroke-linecap:butt;stroke-linejoin:miter;stroke-miterlimit:4;stroke-dasharray:none;stroke-opacity:1"
       d="m 64.062216,49.507593 h -3.96875 -2.645833 -2.645834 l -3.96875,1.322916 -2.645833,1.322917"
       id="path2610" />
    <path
       style="fill:none;stroke:#000000;stroke-width:0.5;stroke-linecap:butt;stroke-linejoin:miter;stroke-miterlimit:4;stroke-dasharray:none;stroke-opacity:1"
       d="m 65.385133,56.122174 -3.96875,1.32292 -3.96875,2.64583 -2.645834,2.64584 -1.322916,2.64583"
       id="path2612" />
    <path
       style="fill:none;stroke:#000000;stroke-width:0.5;stroke-linecap:butt;stroke-linejoin:miter;stroke-miterlimit:4;stroke-dasharray:none;stroke-opacity:1"
       d="m 94.489307,52.153434 5.29166,1.32292 3.968753,1.32292 5.29166,2.64583 2.64584,2.64583"
       id="path2495-1" />
    <path
       style="fill:none;stroke:#000000;stroke-width:0.5;stroke-linecap:butt;stroke-linejoin:miter;stroke-miterlimit:4;stroke-dasharray:none;stroke-opacity:1"
       d="m 95.812217,49.507594 h 3.96875 2.645833 2.64584 l 3.96875,1.32292 2.64583,1.32292"
       id="path2610-6" />
    <path
       style="fill:none;stroke:#000000;stroke-width:0.5;stroke-linecap:butt;stroke-linejoin:miter;stroke-miterlimit:4;stroke-dasharray:none;stroke-opacity:1"
       d="m 94.489307,56.122184 3.96874,1.32292 3.968753,2.64583 2.64584,2.64584 1.32291,2.64583"
       id="path2612-3" />
  </g>
</svg>
