<?xml version="1.0" encoding="UTF-8" standalone="no"?>
<!-- Created with Inkscape (http://www.inkscape.org/) -->

<svg
   width="160mm"
   height="160mm"
   viewBox="0 0 160 160"
   version="1.1"
   id="svg5"
   xmlns="http://www.w3.org/2000/svg"
   xmlns:svg="http://www.w3.org/2000/svg">
  <defs
     id="defs2" />
  <g
     id="layer4">
    <path
       style="fill:#999999;stroke:none;stroke-width:1.88976;stroke-linejoin:round;stroke-miterlimit:4;stroke-dasharray:none;paint-order:stroke fill markers"
       id="path2750"
       d="M 130.2087,93.884583 A 50.295559,65.222244 0 0 1 79.976782,159.10677 50.295559,65.222244 0 0 1 29.617741,94.049642 50.295559,65.222244 0 0 1 79.722213,28.662808 50.295559,65.222244 0 0 1 130.20805,93.554464" />
  </g>
  <g
     id="layer5"
     style="display:inline">
    <path
       style="fill:#b3b3b3;stroke:none;stroke-width:1.88976;stroke-linejoin:round;stroke-miterlimit:4;stroke-dasharray:none;paint-order:stroke fill markers"
       id="path3089"
       d="M 21.191859,-66.025833 A 14.970098,23.759853 0 0 1 6.2407038,-42.265999 14.970098,23.759853 0 0 1 -8.7482884,-65.965703 14.970098,23.759853 0 0 1 6.1649335,-89.785515 14.970098,23.759853 0 0 1 21.191667,-66.146092"
       transform="matrix(-0.57489064,0.81823026,-0.52032889,-0.85396595,0,0)" />
    <path
       style="display:inline;fill:#b3b3b3;stroke:none;stroke-width:1.88976;stroke-linejoin:round;stroke-miterlimit:4;stroke-dasharray:none;paint-order:stroke fill markers"
       id="path3089-0"
       transform="matrix(0.57489064,0.81823026,0.52032889,-0.85396595,0,0)"
       d="M 169.22493,75.814552 A 14.970098,23.759853 0 0 1 154.27378,99.574387 14.970098,23.759853 0 0 1 139.28479,75.874681 14.970098,23.759853 0 0 1 154.19801,52.05487 14.970098,23.759853 0 0 1 169.22474,75.694295" />
  </g>
  <g
     id="layer1"
     style="display:inline">
    <path
       id="path1191"
       style="fill:#b3b3b3;stroke-width:6.86968;stroke-linejoin:round;paint-order:stroke fill markers"
       d="m 79.237957,8.0876639 a 33.901261,29.025268 0 0 0 -33.772693,29.0985831 33.901261,29.025268 0 0 0 0.257212,3.3265 39.116608,21.879133 0 0 0 -5.472248,11.205459 39.116608,21.879133 0 0 0 39.165989,21.82359 39.116608,21.879133 0 0 0 39.067183,-21.879142 l -5.1e-4,-0.11063 a 39.116608,21.879133 0 0 0 -5.47275,-11.032628 33.901261,29.025268 0 0 0 0.25772,-3.406744 l -5.1e-4,-0.146716 A 33.901261,29.025268 0 0 0 79.237957,8.0876639 Z" />
  </g>
  <g
     id="layer7">
    <path
       style="fill:#ff8080;stroke:none;stroke-width:3.77953;stroke-linejoin:round;stroke-miterlimit:4;stroke-dasharray:none;stroke-opacity:1;paint-order:stroke fill markers"
       id="path5822"
       d="m 92.012071,60.740204 a 12.410371,4.4300666 0 0 1 -12.394668,4.430063 12.410371,4.4300666 0 0 1 -12.426034,-4.418852 12.410371,4.4300666 0 0 1 12.36322,-4.441246 12.410371,4.4300666 0 0 1 12.457323,4.407612" />
  </g>
  <g
     id="layer6"
     style="display:inline">
    <path
       id="path5276"
       style="fill:#f9f9f9;stroke:none;stroke-width:0.95821;stroke-linejoin:round;stroke-miterlimit:4;stroke-dasharray:none;stroke-opacity:1;paint-order:stroke fill markers"
       d="m 64.806379,48.246574 a 16.600814,6.8679104 81.274781 0 0 -0.434599,0.02467 16.600814,6.8679104 81.274781 0 0 -4.344437,17.311228 16.600814,6.8679104 81.274781 0 0 3.053561,10.100631 16.600814,6.8679104 81.274781 0 0 5.952607,8.915864 16.573218,6.8793462 88.030568 0 1 -2.349728,-11.488944 16.573218,6.8793462 88.030568 0 1 5.025533,-16.456225 16.600814,6.8679104 81.274781 0 0 -2.448428,-3.217892 16.573218,6.8793462 88.030568 0 1 0.877983,-0.599261 16.600814,6.8679104 81.274781 0 0 -5.332492,-4.590073 z" />
    <path
       id="path5276-7"
       style="fill:#f9f9f9;stroke:none;stroke-width:0.95821;stroke-linejoin:round;stroke-miterlimit:4;stroke-dasharray:none;stroke-opacity:1;paint-order:stroke fill markers"
       d="m 94.730628,48.007517 a 6.8679104,16.600814 8.7252189 0 1 0.4346,0.02467 6.8679104,16.600814 8.7252189 0 1 4.34444,17.311229 6.8679104,16.600814 8.7252189 0 1 -3.05356,10.10063 6.8679104,16.600814 8.7252189 0 1 -5.95261,8.915865 6.8793462,16.573218 1.9694318 0 0 2.34973,-11.488944 6.8793462,16.573218 1.9694318 0 0 -5.02554,-16.456224 6.8679104,16.600814 8.7252189 0 1 2.44843,-3.217893 6.8793462,16.573218 1.9694318 0 0 -0.87798,-0.599261 6.8679104,16.600814 8.7252189 0 1 5.33249,-4.590074 z" />
  </g>
  <g
     id="layer2"
     style="display:inline">
    <path
       id="path1388"
       style="fill:#999999;stroke-width:7.25247;stroke-linejoin:round;paint-order:stroke fill markers"
       d="m 79.937217,43.985602 a 15.754442,6.7862803 0 0 0 -13.175911,3.109546 10.631519,8.0246637 0 0 0 -7.906251,7.771479 10.631519,8.0246637 0 0 0 10.644636,8.004528 10.631519,8.0246637 0 0 0 9.991726,-5.32028 15.754442,6.7862803 0 0 0 0.39592,0.0062 10.850445,8.1353488 0 0 0 10.23853,5.425155 10.850445,8.1353488 0 0 0 10.836493,-8.135347 v -0.04132 a 10.850445,8.1353488 0 0 0 -7.819233,-7.769817 15.754442,6.7862803 0 0 0 -13.20591,-3.050225 z" />
    <path
       style="fill:#ffffff;stroke:#000000;stroke-width:2;stroke-linejoin:round;stroke-miterlimit:4;stroke-dasharray:none;stroke-opacity:1;paint-order:stroke fill markers"
       id="path1835"
       d="m 68.031021,39.036488 a 3.96875,3.64397 0 0 1 -3.963728,3.643967 3.96875,3.64397 0 0 1 -3.973759,-3.634746 3.96875,3.64397 0 0 1 3.953671,-3.653165 3.96875,3.64397 0 0 1 3.983765,3.6255" />
    <path
       style="fill:#ffffff;stroke:#000000;stroke-width:2;stroke-linejoin:round;stroke-miterlimit:4;stroke-dasharray:none;stroke-opacity:1;paint-order:stroke fill markers"
       id="path1835-9"
       d="m 99.781013,39.036488 a 3.96875,3.64397 0 0 1 -3.963728,3.643967 3.96875,3.64397 0 0 1 -3.973759,-3.634746 3.96875,3.64397 0 0 1 3.953672,-3.653165 3.96875,3.64397 0 0 1 3.983765,3.6255" />
    <path
       style="fill:#000000;stroke:none;stroke-width:7.2189;stroke-linejoin:round;paint-order:stroke fill markers"
       id="path2361"
       d="m 85.16962,45.448135 a 5.2434115,3.2994576 0 0 1 -5.236777,3.299455 5.2434115,3.2994576 0 0 1 -5.250029,-3.291105 5.2434115,3.2994576 0 0 1 5.22349,-3.307783 5.2434115,3.2994576 0 0 1 5.263249,3.282733" />
  </g>
  <g
     id="layer3"
     style="display:inline">
    <path
       style="fill:none;stroke:#000000;stroke-width:0.479105;stroke-linecap:butt;stroke-linejoin:miter;stroke-miterlimit:4;stroke-dasharray:none;stroke-opacity:1"
       d="m 64.322572,55.19365 -5.11714,-1.73403 -4.0242,-1.049644 -5.862517,-0.730531 -3.676638,0.638231"
       id="path2495" />
    <path
       style="fill:none;stroke:#000000;stroke-width:0.479105;stroke-linecap:butt;stroke-linejoin:miter;stroke-miterlimit:4;stroke-dasharray:none;stroke-opacity:1"
       d="m 64.720391,52.502265 -3.278819,-2.053146 -2.18588,-1.368764 -2.18588,-1.368765 -4.024199,-1.049647 -2.931259,-0.365264"
       id="path2610" />
    <path
       style="fill:none;stroke:#000000;stroke-width:0.479105;stroke-linecap:butt;stroke-linejoin:miter;stroke-miterlimit:4;stroke-dasharray:none;stroke-opacity:1"
       d="m 62.086434,58.204145 -4.024202,-1.049644 -4.769577,-0.04615 -3.676643,0.63824 -2.583697,1.322615"
       id="path2612" />
    <path
       style="display:inline;fill:none;stroke:#000000;stroke-width:0.479105;stroke-linecap:butt;stroke-linejoin:miter;stroke-miterlimit:4;stroke-dasharray:none;stroke-opacity:1"
       d="m 95.148771,54.772955 5.117139,-1.734029 4.0242,-1.049644 5.86252,-0.730532 3.67664,0.638232"
       id="path2495-0" />
    <path
       style="display:inline;fill:none;stroke:#000000;stroke-width:0.479105;stroke-linecap:butt;stroke-linejoin:miter;stroke-miterlimit:4;stroke-dasharray:none;stroke-opacity:1"
       d="m 94.750952,52.081571 3.278819,-2.053146 2.185879,-1.368765 2.18588,-1.368764 4.0242,-1.049647 2.93126,-0.365264"
       id="path2610-5" />
    <path
       style="display:inline;fill:none;stroke:#000000;stroke-width:0.479105;stroke-linecap:butt;stroke-linejoin:miter;stroke-miterlimit:4;stroke-dasharray:none;stroke-opacity:1"
       d="m 97.384909,57.783451 4.024201,-1.049645 4.76958,-0.04615 3.67664,0.63824 2.5837,1.322615"
       id="path2612-2" />
  </g>
</svg>
