<?xml version="1.0" encoding="UTF-8" standalone="no"?>
<!-- Created with Inkscape (http://www.inkscape.org/) -->

<svg
   width="160mm"
   height="160mm"
   viewBox="0 0 160 160"
   version="1.1"
   id="svg5"
   xmlns="http://www.w3.org/2000/svg"
   xmlns:svg="http://www.w3.org/2000/svg">
  <defs
     id="defs2" />
  <g
     id="layer4">
    <path
       style="fill:#e6e6e6;stroke:none;stroke-width:1.88976;stroke-linejoin:round;stroke-miterlimit:4;stroke-dasharray:none;paint-order:stroke fill markers"
       id="path2750"
       d="M 130.2087,93.884583 A 50.295559,65.222244 0 0 1 79.976782,159.10677 50.295559,65.222244 0 0 1 29.617741,94.049642 50.295559,65.222244 0 0 1 79.722213,28.662808 50.295559,65.222244 0 0 1 130.20805,93.554464" />
  </g>
  <g
     id="layer5">
    <path
       style="fill:#f2f2f2;stroke:none;stroke-width:1.88976;stroke-linejoin:round;stroke-miterlimit:4;stroke-dasharray:none;paint-order:stroke fill markers"
       id="path3089"
       d="M 13.03506,92.703941 A 14.970098,23.759853 0 0 1 -1.9160952,116.46378 14.970098,23.759853 0 0 1 -16.905087,92.764071 14.970098,23.759853 0 0 1 -1.9918656,68.944259 14.970098,23.759853 0 0 1 13.034868,92.583682"
       transform="matrix(0.60056321,-0.79957728,0.49297099,0.87004575,0,0)" />
    <path
       style="fill:#f2f2f2;stroke:none;stroke-width:1.88976;stroke-linejoin:round;stroke-miterlimit:4;stroke-dasharray:none;paint-order:stroke fill markers"
       id="path3089-5"
       transform="matrix(-0.58109905,-0.81383284,-0.47421937,0.88040672,0,0)"
       d="m -139.58696,-49.226562 a 15.471527,24.699366 0 0 1 -15.45195,24.699345 15.471527,24.699366 0 0 1 -15.49105,-24.636839 15.471527,24.699366 0 0 1 15.41274,-24.761694 15.471527,24.699366 0 0 1 15.53006,24.574174" />
  </g>
  <g
     id="layer1"
     style="display:inline">
    <path
       id="path1191"
       style="fill:#f2f2f2;stroke-width:7.16678;stroke-linejoin:round;paint-order:stroke fill markers"
       d="M 79.237957,2.3037552 A 33.901261,31.590109 0 0 0 45.465264,33.973658 33.901261,31.590109 0 0 0 45.722476,37.594107 39.116608,23.8125 0 0 0 40.250228,49.789745 39.116608,23.8125 0 0 0 79.416217,73.541794 39.116608,23.8125 0 0 0 118.4834,49.729285 l -5.1e-4,-0.120406 a 39.116608,23.8125 0 0 0 -5.47275,-12.007535 33.901261,31.590109 0 0 0 0.25772,-3.707784 l -5.1e-4,-0.159681 A 33.901261,31.590109 0 0 0 79.237957,2.3037552 Z" />
  </g>
  <g
     id="layer2"
     style="display:inline">
    <path
       id="path1388"
       style="fill:#cccccc;stroke-width:7.09147;stroke-linejoin:round;paint-order:stroke fill markers"
       d="m 79.937217,42.893011 a 15.754442,6.4883251 0 0 0 -13.175911,2.97302 10.631519,7.6723367 0 0 0 -7.906251,7.430268 10.631519,7.6723367 0 0 0 10.644636,7.653085 10.631519,7.6723367 0 0 0 9.991726,-5.08669 15.754442,6.4883251 0 0 0 0.39592,0.006 10.850445,7.778162 0 0 0 10.23853,5.18696 10.850445,7.778162 0 0 0 10.836493,-7.77816 v -0.0395 a 10.850445,7.778162 0 0 0 -7.819233,-7.42868 15.754442,6.4883251 0 0 0 -13.20591,-2.916303 z" />
    <path
       style="fill:#000000;stroke:none;stroke-width:7.2189;stroke-linejoin:round;paint-order:stroke fill markers"
       id="path1835"
       d="m 68.031021,34.975594 a 3.96875,3.96875 0 0 1 -3.963728,3.968746 3.96875,3.96875 0 0 1 -3.973759,-3.958703 3.96875,3.96875 0 0 1 3.953671,-3.978765 3.96875,3.96875 0 0 1 3.983765,3.948634" />
    <path
       style="fill:#000000;stroke:none;stroke-width:7.2189;stroke-linejoin:round;paint-order:stroke fill markers"
       id="path1835-9"
       d="m 99.781013,34.975594 a 3.96875,3.96875 0 0 1 -3.963728,3.968746 3.96875,3.96875 0 0 1 -3.973759,-3.958703 3.96875,3.96875 0 0 1 3.953672,-3.978765 3.96875,3.96875 0 0 1 3.983765,3.948634" />
    <path
       style="fill:#999999;stroke:none;stroke-width:7.2189;stroke-linejoin:round;paint-order:stroke fill markers"
       id="path1983"
       d="m 71.999735,25.701794 a 1.3229166,1.3229166 0 0 1 -1.321242,1.322915 1.3229166,1.3229166 0 0 1 -1.324587,-1.319567 1.3229166,1.3229166 0 0 1 1.317891,-1.326255 1.3229166,1.3229166 0 0 1 1.327922,1.316211" />
    <path
       style="fill:#999999;stroke:none;stroke-width:7.2189;stroke-linejoin:round;paint-order:stroke fill markers"
       id="path1983-3"
       d="m 90.520564,25.701794 a 1.3229166,1.3229166 0 0 1 -1.321243,1.322915 1.3229166,1.3229166 0 0 1 -1.324586,-1.319567 1.3229166,1.3229166 0 0 1 1.31789,-1.326255 1.3229166,1.3229166 0 0 1 1.327922,1.316211" />
    <path
       style="fill:#ffffff;stroke:none;stroke-width:7.2189;stroke-linejoin:round;paint-order:stroke fill markers"
       id="path2255"
       d="m 64.062243,33.63929 a 1.3229166,1.3229166 0 0 1 -1.321243,1.322915 1.3229166,1.3229166 0 0 1 -1.324586,-1.319567 1.3229166,1.3229166 0 0 1 1.317891,-1.326255 1.3229166,1.3229166 0 0 1 1.327921,1.316211" />
    <path
       style="fill:#ffffff;stroke:none;stroke-width:7.2189;stroke-linejoin:round;paint-order:stroke fill markers"
       id="path2257"
       d="m 95.81222,33.632591 a 1.3229166,1.3229166 0 0 1 -1.321242,1.322916 1.3229166,1.3229166 0 0 1 -1.324587,-1.319568 1.3229166,1.3229166 0 0 1 1.317891,-1.326255 1.3229166,1.3229166 0 0 1 1.327921,1.316211" />
    <path
       style="fill:#000000;stroke:none;stroke-width:7.2189;stroke-linejoin:round;paint-order:stroke fill markers"
       id="path2361"
       d="m 83.906021,42.906403 a 4.1693497,2.6458302 0 0 1 -4.164074,2.645828 4.1693497,2.6458302 0 0 1 -4.174612,-2.639133 4.1693497,2.6458302 0 0 1 4.153509,-2.652507 4.1693497,2.6458302 0 0 1 4.185124,2.63242" />
    <path
       style="fill:#f4d7d7;stroke:none;stroke-width:1.88976;stroke-linejoin:round;stroke-miterlimit:4;stroke-dasharray:none;paint-order:stroke fill markers"
       id="path3255"
       d="m 59.765966,41.908165 a 7.0217452,4.3140597 0 0 1 -7.01286,4.314056 7.0217452,4.3140597 0 0 1 -7.030608,-4.303138 7.0217452,4.3140597 0 0 1 6.995068,-4.324947 7.0217452,4.3140597 0 0 1 7.04831,4.292194" />
    <path
       style="display:inline;fill:#f4d7d7;stroke:none;stroke-width:1.88976;stroke-linejoin:round;stroke-miterlimit:4;stroke-dasharray:none;paint-order:stroke fill markers"
       id="path3255-6"
       d="m 59.765966,41.908165 a 7.0217452,4.3140597 0 0 1 -7.01286,4.314056 7.0217452,4.3140597 0 0 1 -7.030608,-4.303138 7.0217452,4.3140597 0 0 1 6.995068,-4.324947 7.0217452,4.3140597 0 0 1 7.04831,4.292194" />
    <path
       style="display:inline;fill:#f4d7d7;stroke:none;stroke-width:1.88976;stroke-linejoin:round;stroke-miterlimit:4;stroke-dasharray:none;paint-order:stroke fill markers"
       id="path3255-3"
       d="m 113.77093,42.355167 a 7.0217452,4.3140597 0 0 1 -7.01286,4.314057 7.0217452,4.3140597 0 0 1 -7.030609,-4.303139 7.0217452,4.3140597 0 0 1 6.995069,-4.324946 7.0217452,4.3140597 0 0 1 7.04831,4.292193" />
  </g>
  <g
     id="layer3"
     style="display:inline">
    <path
       style="fill:none;stroke:#000000;stroke-width:0.5;stroke-linecap:butt;stroke-linejoin:miter;stroke-miterlimit:4;stroke-dasharray:none;stroke-opacity:1"
       d="m 65.385134,52.153428 -5.291667,1.322917 -3.96875,1.322919 -5.291666,2.64583 -2.645834,2.64583"
       id="path2495" />
    <path
       style="fill:none;stroke:#000000;stroke-width:0.5;stroke-linecap:butt;stroke-linejoin:miter;stroke-miterlimit:4;stroke-dasharray:none;stroke-opacity:1"
       d="m 64.062216,49.507593 h -3.96875 -2.645833 -2.645834 l -3.96875,1.322916 -2.645833,1.322917"
       id="path2610" />
    <path
       style="fill:none;stroke:#000000;stroke-width:0.5;stroke-linecap:butt;stroke-linejoin:miter;stroke-miterlimit:4;stroke-dasharray:none;stroke-opacity:1"
       d="m 65.385133,56.122174 -3.96875,1.32292 -3.96875,2.64583 -2.645834,2.64584 -1.322916,2.64583"
       id="path2612" />
    <path
       style="fill:none;stroke:#000000;stroke-width:0.5;stroke-linecap:butt;stroke-linejoin:miter;stroke-miterlimit:4;stroke-dasharray:none;stroke-opacity:1"
       d="m 94.489307,52.153434 5.29166,1.32292 3.968753,1.32292 5.29166,2.64583 2.64584,2.64583"
       id="path2495-1" />
    <path
       style="fill:none;stroke:#000000;stroke-width:0.5;stroke-linecap:butt;stroke-linejoin:miter;stroke-miterlimit:4;stroke-dasharray:none;stroke-opacity:1"
       d="m 95.812217,49.507594 h 3.96875 2.645833 2.64584 l 3.96875,1.32292 2.64583,1.32292"
       id="path2610-6" />
    <path
       style="fill:none;stroke:#000000;stroke-width:0.5;stroke-linecap:butt;stroke-linejoin:miter;stroke-miterlimit:4;stroke-dasharray:none;stroke-opacity:1"
       d="m 94.489307,56.122184 3.96874,1.32292 3.968753,2.64583 2.64584,2.64584 1.32291,2.64583"
       id="path2612-3" />
  </g>
</svg>
