<?xml version="1.0" encoding="UTF-8" standalone="no"?>
<!-- Created with Inkscape (http://www.inkscape.org/) -->

<svg
   width="160mm"
   height="160mm"
   viewBox="0 0 160 160"
   version="1.1"
   id="svg5"
   xmlns="http://www.w3.org/2000/svg"
   xmlns:svg="http://www.w3.org/2000/svg">
  <defs
     id="defs2" />
  <g
     id="layer4">
    <path
       style="fill:#e6e6e6;stroke:none;stroke-width:1.88976;stroke-linejoin:round;stroke-miterlimit:4;stroke-dasharray:none;paint-order:stroke fill markers"
       id="path2750"
       d="M 130.2087,93.884583 A 50.295559,65.222244 0 0 1 79.976782,159.10677 50.295559,65.222244 0 0 1 29.617741,94.049642 50.295559,65.222244 0 0 1 79.722213,28.662808 50.295559,65.222244 0 0 1 130.20805,93.554464" />
  </g>
  <g
     id="layer5"
     style="display:inline">
    <path
       style="fill:#f2f2f2;stroke:none;stroke-width:1.88976;stroke-linejoin:round;stroke-miterlimit:4;stroke-dasharray:none;paint-order:stroke fill markers"
       id="path3089"
       d="M 18.226557,-67.893158 A 14.970098,23.759853 0 0 1 3.2754021,-44.133324 14.970098,23.759853 0 0 1 -11.71359,-67.833028 14.970098,23.759853 0 0 1 3.1996318,-91.65284 14.970098,23.759853 0 0 1 18.226365,-68.013417"
       transform="matrix(-0.60207662,0.79843832,-0.49132215,-0.87097793,0,0)" />
    <path
       style="display:inline;fill:#f2f2f2;stroke:none;stroke-width:1.88976;stroke-linejoin:round;stroke-miterlimit:4;stroke-dasharray:none;paint-order:stroke fill markers"
       id="path3089-4"
       transform="matrix(0.60207662,0.79843832,0.49132215,-0.87097793,0,0)"
       d="M 169.17601,70.274338 A 14.970098,23.759853 0 0 1 154.22486,94.034172 14.970098,23.759853 0 0 1 139.23587,70.334467 14.970098,23.759853 0 0 1 154.14909,46.514656 14.970098,23.759853 0 0 1 169.17582,70.15408" />
  </g>
  <g
     id="layer1"
     style="display:inline">
    <path
       id="path1191"
       style="fill:#f2f2f2;stroke-width:6.73765;stroke-linejoin:round;paint-order:stroke fill markers"
       d="M 79.237957,10.579565 A 33.901261,27.920249 0 0 0 45.465264,38.570337 33.901261,27.920249 0 0 0 45.722476,41.770195 39.116608,21.046174 0 0 0 40.250228,52.549051 39.116608,21.046174 0 0 0 79.416217,73.541796 39.116608,21.046174 0 0 0 118.4834,52.495615 l -5.1e-4,-0.106419 a 39.116608,21.046174 0 0 0 -5.47275,-10.612605 33.901261,27.920249 0 0 0 0.25772,-3.277046 l -5.1e-4,-0.141131 A 33.901261,27.920249 0 0 0 79.237957,10.579565 Z" />
    <path
       style="fill:#ff8080;stroke:none;stroke-width:3.77953;stroke-linejoin:round;stroke-miterlimit:4;stroke-dasharray:none;stroke-opacity:1;paint-order:stroke fill markers"
       id="path4421"
       d="m 85.924968,61.943054 a 6.3536944,4.2697082 0 0 1 -6.345654,4.269705 6.3536944,4.2697082 0 0 1 -6.361714,-4.258899 6.3536944,4.2697082 0 0 1 6.329555,-4.280483 6.3536944,4.2697082 0 0 1 6.377732,4.248066" />
  </g>
  <g
     id="layer2"
     style="display:inline">
    <path
       id="path1388"
       style="fill:#cccccc;stroke-width:6.52257;stroke-linejoin:round;paint-order:stroke fill markers"
       d="M 79.937217,46.953857 A 15.754442,5.4890529 0 0 0 66.761306,49.469 a 10.631519,6.4907139 0 0 0 -7.906251,6.285926 10.631519,6.4907139 0 0 0 10.644636,6.474427 10.631519,6.4907139 0 0 0 9.991726,-4.303285 15.754442,5.4890529 0 0 0 0.39592,0.0051 10.850445,6.5802409 0 0 0 10.23853,4.388112 10.850445,6.5802409 0 0 0 10.836493,-6.580239 v -0.03342 a 10.850445,6.5802409 0 0 0 -7.819233,-6.284583 15.754442,5.4890529 0 0 0 -13.20591,-2.467161 z" />
    <path
       style="fill:#ffffff;stroke:#000000;stroke-width:1;stroke-linejoin:round;stroke-miterlimit:4;stroke-dasharray:none;stroke-opacity:1;paint-order:stroke fill markers"
       id="path1835"
       d="m 68.031021,40.25581 a 3.96875,3.3575196 0 0 1 -3.963728,3.357517 3.96875,3.3575196 0 0 1 -3.973759,-3.34902 3.96875,3.3575196 0 0 1 3.953671,-3.365993 3.96875,3.3575196 0 0 1 3.983765,3.340502" />
    <path
       style="fill:#ffffff;stroke:#000000;stroke-width:1;stroke-linejoin:round;stroke-miterlimit:4;stroke-dasharray:none;stroke-opacity:1;paint-order:stroke fill markers"
       id="path1835-9"
       d="m 99.781013,40.25581 a 3.96875,3.3575196 0 0 1 -3.963728,3.357517 3.96875,3.3575196 0 0 1 -3.973759,-3.34902 3.96875,3.3575196 0 0 1 3.953672,-3.365993 3.96875,3.3575196 0 0 1 3.983765,3.340502" />
    <path
       style="fill:#999999;stroke:none;stroke-width:7.2189;stroke-linejoin:round;paint-order:stroke fill markers"
       id="path1983"
       d="m 71.999735,32.410275 a 1.3229166,1.1191732 0 0 1 -1.321242,1.119172 1.3229166,1.1191732 0 0 1 -1.324587,-1.11634 1.3229166,1.1191732 0 0 1 1.317891,-1.121998 1.3229166,1.1191732 0 0 1 1.327922,1.113501" />
    <path
       style="fill:#999999;stroke:none;stroke-width:7.2189;stroke-linejoin:round;paint-order:stroke fill markers"
       id="path1983-3"
       d="m 90.520564,32.410275 a 1.3229166,1.1191732 0 0 1 -1.321243,1.119172 1.3229166,1.1191732 0 0 1 -1.324586,-1.11634 1.3229166,1.1191732 0 0 1 1.31789,-1.121998 1.3229166,1.1191732 0 0 1 1.327922,1.113501" />
    <path
       style="fill:#000000;stroke:none;stroke-width:7.2189;stroke-linejoin:round;paint-order:stroke fill markers"
       id="path2361"
       d="m 83.906021,46.965187 a 4.1693497,2.2383437 0 0 1 -4.164074,2.238342 4.1693497,2.2383437 0 0 1 -4.174612,-2.232677 4.1693497,2.2383437 0 0 1 4.153509,-2.243993 4.1693497,2.2383437 0 0 1 4.185124,2.226999" />
  </g>
  <g
     id="layer3"
     style="display:inline">
    <path
       style="fill:none;stroke:#000000;stroke-width:0.459888;stroke-linecap:butt;stroke-linejoin:miter;stroke-miterlimit:4;stroke-dasharray:none;stroke-opacity:1"
       d="m 65.144744,55.664782 -5.349603,-0.900728 -4.153504,-0.422571 -5.914801,0.111157 -3.522603,1.067466"
       id="path2495" />
    <path
       style="fill:none;stroke:#000000;stroke-width:0.459888;stroke-linecap:butt;stroke-linejoin:miter;stroke-miterlimit:4;stroke-dasharray:none;stroke-opacity:1"
       d="m 65.079045,53.162851 -3.588301,-1.434462 -2.3922,-0.956308 -2.392202,-0.956309 -4.153502,-0.422574 -2.957402,0.05558"
       id="path2610" />
    <path
       style="fill:none;stroke:#000000;stroke-width:0.459888;stroke-linecap:butt;stroke-linejoin:miter;stroke-miterlimit:4;stroke-dasharray:none;stroke-opacity:1"
       d="m 63.449142,58.700444 -4.153504,-0.422572 -4.718702,0.589311 -3.522607,1.067473 -2.3265,1.545619"
       id="path2612" />
    <path
       style="fill:none;stroke:#000000;stroke-width:0.459888;stroke-linecap:butt;stroke-linejoin:miter;stroke-miterlimit:4;stroke-dasharray:none;stroke-opacity:1"
       d="m 94.555758,55.308752 5.26047,-1.219882 4.107542,-0.67107 5.90919,-0.244514 3.60333,0.85311"
       id="path2495-1" />
    <path
       style="fill:none;stroke:#000000;stroke-width:0.459888;stroke-linecap:butt;stroke-linejoin:miter;stroke-miterlimit:4;stroke-dasharray:none;stroke-opacity:1"
       d="m 94.411236,52.809191 3.458811,-1.646444 2.305873,-1.09763 2.30588,-1.097632 4.10754,-0.67107 2.95459,-0.122253"
       id="path2610-6" />
    <path
       style="fill:none;stroke:#000000;stroke-width:0.459888;stroke-linecap:butt;stroke-linejoin:miter;stroke-miterlimit:4;stroke-dasharray:none;stroke-opacity:1"
       d="m 96.501935,58.234869 4.107525,-0.671065 4.75626,0.304296 3.60334,0.853118 2.45038,1.40193"
       id="path2612-3" />
  </g>
</svg>
