<?xml version="1.0" encoding="UTF-8" standalone="no"?>
<!-- Created with Inkscape (http://www.inkscape.org/) -->

<svg
   width="210mm"
   height="44mm"
   viewBox="0 0 210 44"
   version="1.1"
   id="svg5"
   xmlns:xlink="http://www.w3.org/1999/xlink"
   xmlns="http://www.w3.org/2000/svg"
   xmlns:svg="http://www.w3.org/2000/svg">
  <defs
     id="defs2">
    <linearGradient
       id="linearGradient1647">
      <stop
         style="stop-color:#00ffff;stop-opacity:1;"
         offset="0"
         id="stop1643" />
      <stop
         style="stop-color:#00ffff;stop-opacity:0;"
         offset="1"
         id="stop1645" />
    </linearGradient>
    <linearGradient
       xlink:href="#linearGradient1647"
       id="linearGradient1745"
       gradientUnits="userSpaceOnUse"
       x1="104.62627"
       y1="112.96605"
       x2="104.62627"
       y2="51.554977"
       gradientTransform="translate(-0.50544095,-8.8452163)" />
  </defs>
  <g
     id="layer1"
     transform="matrix(-1.0410928,0,0,0.62551606,214.984,-3.4432543)">
    <path
       id="rect848"
       style="fill:#b4f9f9;fill-opacity:1;stroke-width:1;stroke-linejoin:round;paint-order:stroke fill markers"
       d="M 52.411225,7.0297832 47.119558,12.32145 41.827892,14.967283 39.182059,12.32145 V 9.6756165 L 33.890392,12.32145 31.244559,14.967283 28.598725,20.25895 25.952892,17.613117 23.307059,12.32145 18.015392,9.6756165 12.723726,14.967283 10.077892,12.32145 7.432059,14.967283 4.7862257,22.904783 V 75.821449 H 205.86956 V 22.904783 9.6756165 h -2.64584 l -5.29166,7.9375005 -2.64584,-5.291667 -5.29166,-2.6458335 -2.64584,5.2916665 h -7.9375 l -5.29166,-5.2916665 -7.9375,5.2916665 h -2.64584 V 12.32145 h -5.29166 l -2.64584,5.291667 -5.29166,-2.645834 -2.64584,-5.2916665 h -2.64583 l -5.29167,-2.6458333 -2.64583,2.6458333 -5.29167,7.9375005 -5.29166,-2.645834 -7.9375,2.645834 h -5.29167 l -2.64583,-5.291667 -2.64584,-2.6458335 h -5.29166 L 97.390391,14.967283 94.744558,12.32145 h -5.291667 l -2.645833,2.645833 -2.645833,2.645834 -5.291667,-2.645834 -5.291667,2.645834 -2.645833,-2.645834 -2.645833,-5.2916665 -5.291667,5.2916665 H 57.702892 L 55.057058,12.32145 Z" />
    <path
       id="rect848-3"
       style="fill:#f1f9f9;fill-opacity:1;stroke-width:0.988754;stroke-linejoin:round;paint-order:stroke fill markers"
       d="m 52.411225,8.5684094 -5.291667,5.1733096 -5.291666,2.586656 -2.645834,-2.586656 v -2.586655 l -5.291666,2.586655 -2.645833,2.586656 -2.645834,5.17331 -2.645833,-2.586655 -2.645833,-5.173311 -5.291667,-2.586655 -5.291667,5.173311 -2.645833,-2.586656 -2.6458331,2.586656 -2.6458329,7.759967 V 75.82145 H 205.86956 V 24.088342 11.155064 h -2.64583 l -5.29167,7.759966 -2.64583,-5.173311 -5.29167,-2.586655 -2.64583,5.173311 h -7.9375 l -5.29167,-5.173311 -7.9375,5.173311 h -2.64583 v -2.586656 h -5.29167 l -2.64583,5.173311 -5.29167,-2.586655 -2.64583,-5.173311 h -2.64583 l -5.29167,-2.5866546 -2.64583,2.5866546 -5.29167,7.759966 -5.29167,-2.586655 -7.9375,2.586655 h -5.29167 l -2.64583,-5.173311 -2.64584,-2.586655 h -5.29166 l -5.291669,5.173311 -2.645833,-2.586656 h -5.291667 l -2.645833,2.586656 -2.645833,2.586655 -5.291667,-2.586655 -5.291667,2.586655 -2.645833,-2.586655 -2.645833,-5.173311 -5.291667,5.173311 h -5.291666 l -2.645834,-2.586656 z" />
    <path
       id="rect848-3-6"
       style="fill:url(#linearGradient1745);fill-opacity:1;stroke:none;stroke-width:0.988754;stroke-linejoin:round;paint-order:stroke fill markers"
       d="m 52.411222,8.5684094 -5.291667,5.1733096 -5.291666,2.586656 -2.645834,-2.586656 v -2.586655 l -5.291666,2.586655 -2.645833,2.586656 -2.645834,5.17331 -2.645833,-2.586655 -2.645833,-5.173311 -5.291667,-2.586655 -5.291667,5.173311 -2.645833,-2.586656 -2.6458329,2.586656 -2.645833,7.759967 V 75.82145 H 205.86956 V 24.088342 11.155064 h -2.64583 l -5.29167,7.759966 -2.64583,-5.173311 -5.29167,-2.586655 -2.64583,5.173311 h -7.9375 l -5.29167,-5.173311 -7.9375,5.173311 h -2.64583 v -2.586656 h -5.29167 l -2.64583,5.173311 -5.29167,-2.586655 -2.64583,-5.173311 h -2.64583 l -5.29167,-2.5866546 -2.64583,2.5866546 -5.29167,7.759966 -5.29167,-2.586655 -7.9375,2.586655 h -5.29167 l -2.64583,-5.173311 -2.64584,-2.586655 h -5.29166 l -5.291671,5.173311 -2.64583,-2.586656 h -5.291671 l -2.645833,2.586656 -2.645833,2.586655 -5.291667,-2.586655 -5.291667,2.586655 -2.645833,-2.586655 -2.645833,-5.173311 -5.291667,5.173311 h -5.291666 l -2.645834,-2.586656 z" />
  </g>
</svg>
